<?xml version="1.0" encoding="UTF-8" standalone="no"?>
<!DOCTYPE svg PUBLIC "-//W3C//DTD SVG 1.1//EN"
 "http://www.w3.org/Graphics/SVG/1.1/DTD/svg11.dtd">
<!-- Generated by graphviz version 2.40.1 (20161225.0304)
 -->
<!-- Title: dependencies Pages: 1 -->
<svg width="1510pt" height="284pt"
 viewBox="0.00 0.00 1510.00 284.00" xmlns="http://www.w3.org/2000/svg" xmlns:xlink="http://www.w3.org/1999/xlink">
<g id="graph0" class="graph" transform="scale(1 1) rotate(0) translate(4 280)">
<title>dependencies</title>
<polygon fill="#ffffff" stroke="transparent" points="-4,4 -4,-280 1506,-280 1506,4 -4,4"/>
<text text-anchor="start" x="730.0091" y="-42.4" font-family="sans-serif" font-weight="bold" font-size="14.00" fill="#000000">Legend</text>
<polygon fill="#ffffb3" stroke="transparent" points="517,-10 517,-30 537,-30 537,-10 517,-10"/>
<text text-anchor="start" x="540.629" y="-15.4" font-family="sans-serif" font-size="14.00" fill="#000000"> &#160;Declarations</text>
<polygon fill="#8dd3c7" stroke="transparent" points="630,-10 630,-30 650,-30 650,-10 630,-10"/>
<text text-anchor="start" x="653.7251" y="-15.4" font-family="sans-serif" font-size="14.00" fill="#000000"> &#160;Module</text>
<polygon fill="#80b1d3" stroke="transparent" points="716,-10 716,-30 736,-30 736,-10 716,-10"/>
<text text-anchor="start" x="739.7812" y="-15.4" font-family="sans-serif" font-size="14.00" fill="#000000"> &#160;Bootstrap</text>
<polygon fill="#fdb462" stroke="transparent" points="813,-10 813,-30 833,-30 833,-10 813,-10"/>
<text text-anchor="start" x="836.6732" y="-15.4" font-family="sans-serif" font-size="14.00" fill="#000000"> &#160;Providers</text>
<polygon fill="#fb8072" stroke="transparent" points="909,-10 909,-30 929,-30 929,-10 909,-10"/>
<text text-anchor="start" x="932.7258" y="-15.4" font-family="sans-serif" font-size="14.00" fill="#000000"> &#160;Exports</text>
<g id="clust1" class="cluster">
<title>cluster_AppModule</title>
<polygon fill="none" stroke="#000000" stroke-dasharray="1,5" points="8,-70 8,-268 1494,-268 1494,-70 8,-70"/>
</g>
<g id="clust2" class="cluster">
<title>cluster_AppModule_declarations</title>
<polygon fill="none" stroke="#000000" points="168,-78 168,-130 1486,-130 1486,-78 168,-78"/>
</g>
<g id="clust12" class="cluster">
<title>cluster_AppModule_imports</title>
<polygon fill="none" stroke="#000000" points="16,-78 16,-130 160,-130 160,-78 16,-78"/>
</g>
<g id="clust14" class="cluster">
<title>cluster_AppModule_bootstrap</title>
<polygon fill="none" stroke="#000000" points="730,-208 730,-260 854,-260 854,-208 730,-208"/>
</g>
<!-- AboutComponent -->
<g id="node1" class="node">
<title>AboutComponent</title>
<polygon fill="#ffffb3" stroke="#000000" points="1478.3301,-122 1361.6699,-122 1361.6699,-86 1478.3301,-86 1478.3301,-122"/>
<text text-anchor="middle" x="1420" y="-99.8" font-family="Times,serif" font-size="14.00" fill="#000000">AboutComponent</text>
</g>
<!-- AppModule -->
<g id="node10" class="node">
<title>AppModule</title>
<polygon fill="#8dd3c7" stroke="#000000" points="833.6571,-187 830.6571,-191 809.6571,-191 806.6571,-187 750.3429,-187 750.3429,-151 833.6571,-151 833.6571,-187"/>
<text text-anchor="middle" x="792" y="-164.8" font-family="Times,serif" font-size="14.00" fill="#000000">AppModule</text>
</g>
<!-- AboutComponent&#45;&gt;AppModule -->
<g id="edge1" class="edge">
<title>AboutComponent&#45;&gt;AppModule</title>
<path fill="none" stroke="#000000" d="M1420,-122.0109C1420,-144.4852 1420,-180 1420,-180 1420,-180 843.6912,-180 843.6912,-180"/>
<polygon fill="#000000" stroke="#000000" points="843.6912,-176.5001 833.6912,-180 843.6911,-183.5001 843.6912,-176.5001"/>
</g>
<!-- AppComponent -->
<g id="node2" class="node">
<title>AppComponent</title>
<polygon fill="#ffffb3" stroke="#000000" points="1343.9399,-122 1238.0601,-122 1238.0601,-86 1343.9399,-86 1343.9399,-122"/>
<text text-anchor="middle" x="1291" y="-99.8" font-family="Times,serif" font-size="14.00" fill="#000000">AppComponent</text>
</g>
<!-- AppComponent&#45;&gt;AppModule -->
<g id="edge2" class="edge">
<title>AppComponent&#45;&gt;AppModule</title>
<path fill="none" stroke="#000000" d="M1291,-122.1289C1291,-142.5724 1291,-173 1291,-173 1291,-173 843.6862,-173 843.6862,-173"/>
<polygon fill="#000000" stroke="#000000" points="843.6862,-169.5001 833.6862,-173 843.6861,-176.5001 843.6862,-169.5001"/>
</g>
<!-- ContactComponent -->
<g id="node3" class="node">
<title>ContactComponent</title>
<polygon fill="#ffffb3" stroke="#000000" points="1220.3795,-122 1095.6205,-122 1095.6205,-86 1220.3795,-86 1220.3795,-122"/>
<text text-anchor="middle" x="1158" y="-99.8" font-family="Times,serif" font-size="14.00" fill="#000000">ContactComponent</text>
</g>
<!-- ContactComponent&#45;&gt;AppModule -->
<g id="edge3" class="edge">
<title>ContactComponent&#45;&gt;AppModule</title>
<path fill="none" stroke="#000000" d="M1158,-122.2667C1158,-140.5552 1158,-166 1158,-166 1158,-166 843.9849,-166 843.9849,-166"/>
<polygon fill="#000000" stroke="#000000" points="843.9849,-162.5001 833.9849,-166 843.9848,-169.5001 843.9849,-162.5001"/>
</g>
<!-- InputComponent -->
<g id="node4" class="node">
<title>InputComponent</title>
<polygon fill="#ffffb3" stroke="#000000" points="1077.3837,-122 966.6163,-122 966.6163,-86 1077.3837,-86 1077.3837,-122"/>
<text text-anchor="middle" x="1022" y="-99.8" font-family="Times,serif" font-size="14.00" fill="#000000">InputComponent</text>
</g>
<!-- InputComponent&#45;&gt;AppModule -->
<g id="edge4" class="edge">
<title>InputComponent&#45;&gt;AppModule</title>
<path fill="none" stroke="#000000" d="M1022,-122.0091C1022,-138.0494 1022,-159 1022,-159 1022,-159 843.9181,-159 843.9181,-159"/>
<polygon fill="#000000" stroke="#000000" points="843.9181,-155.5001 833.9181,-159 843.9181,-162.5001 843.9181,-155.5001"/>
</g>
<!-- InputFormComponent -->
<g id="node5" class="node">
<title>InputFormComponent</title>
<polygon fill="#ffffb3" stroke="#000000" points="948.7176,-122 807.2824,-122 807.2824,-86 948.7176,-86 948.7176,-122"/>
<text text-anchor="middle" x="878" y="-99.8" font-family="Times,serif" font-size="14.00" fill="#000000">InputFormComponent</text>
</g>
<!-- InputFormComponent&#45;&gt;AppModule -->
<g id="edge5" class="edge">
<title>InputFormComponent&#45;&gt;AppModule</title>
<path fill="none" stroke="#000000" d="M820.6098,-122.1061C820.6098,-122.1061 820.6098,-140.991 820.6098,-140.991"/>
<polygon fill="#000000" stroke="#000000" points="817.1098,-140.9909 820.6098,-150.991 824.1098,-140.991 817.1098,-140.9909"/>
</g>
<!-- PageNotFoundComponent -->
<g id="node6" class="node">
<title>PageNotFoundComponent</title>
<polygon fill="#ffffb3" stroke="#000000" points="789.8243,-122 624.1757,-122 624.1757,-86 789.8243,-86 789.8243,-122"/>
<text text-anchor="middle" x="707" y="-99.8" font-family="Times,serif" font-size="14.00" fill="#000000">PageNotFoundComponent</text>
</g>
<!-- PageNotFoundComponent&#45;&gt;AppModule -->
<g id="edge6" class="edge">
<title>PageNotFoundComponent&#45;&gt;AppModule</title>
<path fill="none" stroke="#000000" d="M769.9169,-122.1061C769.9169,-122.1061 769.9169,-140.991 769.9169,-140.991"/>
<polygon fill="#000000" stroke="#000000" points="766.417,-140.9909 769.9169,-150.991 773.417,-140.991 766.417,-140.9909"/>
</g>
<!-- PrivacyComponent -->
<g id="node7" class="node">
<title>PrivacyComponent</title>
<polygon fill="#ffffb3" stroke="#000000" points="606.0954,-122 481.9046,-122 481.9046,-86 606.0954,-86 606.0954,-122"/>
<text text-anchor="middle" x="544" y="-99.8" font-family="Times,serif" font-size="14.00" fill="#000000">PrivacyComponent</text>
</g>
<!-- PrivacyComponent&#45;&gt;AppModule -->
<g id="edge7" class="edge">
<title>PrivacyComponent&#45;&gt;AppModule</title>
<path fill="none" stroke="#000000" d="M544,-122.0091C544,-138.0494 544,-159 544,-159 544,-159 740.2106,-159 740.2106,-159"/>
<polygon fill="#000000" stroke="#000000" points="740.2107,-162.5001 750.2106,-159 740.2106,-155.5001 740.2107,-162.5001"/>
</g>
<!-- ResultsComponent -->
<g id="node8" class="node">
<title>ResultsComponent</title>
<polygon fill="#ffffb3" stroke="#000000" points="464.0548,-122 341.9452,-122 341.9452,-86 464.0548,-86 464.0548,-122"/>
<text text-anchor="middle" x="403" y="-99.8" font-family="Times,serif" font-size="14.00" fill="#000000">ResultsComponent</text>
</g>
<!-- ResultsComponent&#45;&gt;AppModule -->
<g id="edge8" class="edge">
<title>ResultsComponent&#45;&gt;AppModule</title>
<path fill="none" stroke="#000000" d="M403,-122.2667C403,-140.5552 403,-166 403,-166 403,-166 740.0006,-166 740.0006,-166"/>
<polygon fill="#000000" stroke="#000000" points="740.0006,-169.5001 750.0006,-166 740.0006,-162.5001 740.0006,-169.5001"/>
</g>
<!-- SimulationsComponent -->
<g id="node9" class="node">
<title>SimulationsComponent</title>
<polygon fill="#ffffb3" stroke="#000000" points="324.2274,-122 175.7726,-122 175.7726,-86 324.2274,-86 324.2274,-122"/>
<text text-anchor="middle" x="250" y="-99.8" font-family="Times,serif" font-size="14.00" fill="#000000">SimulationsComponent</text>
</g>
<!-- SimulationsComponent&#45;&gt;AppModule -->
<g id="edge9" class="edge">
<title>SimulationsComponent&#45;&gt;AppModule</title>
<path fill="none" stroke="#000000" d="M250,-122.1289C250,-142.5724 250,-173 250,-173 250,-173 739.9212,-173 739.9212,-173"/>
<polygon fill="#000000" stroke="#000000" points="739.9212,-176.5001 749.9212,-173 739.9211,-169.5001 739.9212,-176.5001"/>
</g>
<!-- AppComponent  -->
<g id="node12" class="node">
<title>AppComponent </title>
<polygon fill="#80b1d3" stroke="#000000" points="846.439,-252 737.561,-252 737.561,-216 846.439,-216 846.439,-252"/>
<text text-anchor="middle" x="792" y="-229.8" font-family="Times,serif" font-size="14.00" fill="#000000">AppComponent </text>
</g>
<!-- AppModule&#45;&gt;AppComponent  -->
<g id="edge11" class="edge">
<title>AppModule&#45;&gt;AppComponent </title>
<path fill="none" stroke="#000000" stroke-dasharray="1,5" d="M792,-187.1061C792,-187.1061 792,-205.991 792,-205.991"/>
<polygon fill="#000000" stroke="#000000" points="788.5001,-205.9909 792,-215.991 795.5001,-205.991 788.5001,-205.9909"/>
</g>
<!-- AppRoutingModule -->
<g id="node11" class="node">
<title>AppRoutingModule</title>
<polygon fill="#8dd3c7" stroke="#000000" points="152.2744,-122 149.2744,-126 128.2744,-126 125.2744,-122 23.7256,-122 23.7256,-86 152.2744,-86 152.2744,-122"/>
<text text-anchor="middle" x="88" y="-99.8" font-family="Times,serif" font-size="14.00" fill="#000000">AppRoutingModule</text>
</g>
<!-- AppRoutingModule&#45;&gt;AppModule -->
<g id="edge10" class="edge">
<title>AppRoutingModule&#45;&gt;AppModule</title>
<path fill="none" stroke="#000000" d="M88,-122.0109C88,-144.4852 88,-180 88,-180 88,-180 740.3302,-180 740.3302,-180"/>
<polygon fill="#000000" stroke="#000000" points="740.3303,-183.5001 750.3302,-180 740.3302,-176.5001 740.3303,-183.5001"/>
</g>
</g>
</svg>
